<svg width="35" height="35" viewBox="0 0 35 35" fill="none" xmlns="http://www.w3.org/2000/svg">
<path d="M17.4853 2.91667C9.43525 2.91667 2.9165 9.45001 2.9165 17.5C2.9165 25.55 9.43525 32.0833 17.4853 32.0833C25.5498 32.0833 32.0832 25.55 32.0832 17.5C32.0832 9.45001 25.5498 2.91667 17.4853 2.91667ZM17.4998 29.1667C11.054 29.1667 5.83317 23.9458 5.83317 17.5C5.83317 11.0542 11.054 5.83334 17.4998 5.83334C23.9457 5.83334 29.1665 11.0542 29.1665 17.5C29.1665 23.9458 23.9457 29.1667 17.4998 29.1667Z" fill="black"/>
<path d="M18.229 10.2083H16.0415V18.9583L23.6978 23.5521L24.7915 21.7583L18.229 17.8646V10.2083Z" fill="black"/>
</svg>
