<svg width="50" height="50" viewBox="0 0 50 50" fill="none" xmlns="http://www.w3.org/2000/svg">
<g clip-path="url(#clip0_114:55)">
<path d="M50.0001 47.9188C50.008 48.2078 49.9566 48.4953 49.849 48.7637C49.7415 49.0321 49.5801 49.2757 49.3747 49.4794C48.9653 49.8192 48.4489 50.0035 47.9167 50H2.08344C1.55439 49.9857 1.04366 49.8034 0.625398 49.4794C0.420063 49.2757 0.258653 49.0321 0.151107 48.7637C0.0435605 48.4953 -0.00784421 48.2078 5.82462e-05 47.9188V17.4294H50.0001V47.9188Z" fill="#FFD15C"/>
<path d="M49.3756 49.4805C48.9662 49.8203 48.4499 50.0047 47.9176 50.0011H2.08328C1.55423 49.9868 1.04351 49.8045 0.625244 49.4805L25.0004 28.5643L49.3756 49.4805Z" fill="#F8B64C"/>
<path d="M50 17.4305L42.9172 22.5278L26.3544 34.3915C25.9486 34.6955 25.4551 34.8598 24.9479 34.8598C24.4407 34.8598 23.9472 34.6955 23.5414 34.3915L7.08284 22.5289L0 17.4316L7.08284 12.3343L22.5003 1.30142L23.6456 0.468503C24.0514 0.164473 24.5449 0.00012207 25.0521 0.00012207C25.5593 0.00012207 26.0528 0.164473 26.4586 0.468503L27.604 1.30142L35.0005 6.60802L38.6462 9.21089L42.9172 12.3322L50 17.4305Z" fill="url(#paint0_linear_114:55)"/>
<path d="M42.916 7.75221V22.5278L26.3532 34.3915C25.9475 34.6955 25.4539 34.8599 24.9467 34.8599C24.4395 34.8599 23.946 34.6955 23.5403 34.3915L7.08276 22.5278V3.38156C7.08448 2.83012 7.30453 2.30175 7.69486 1.91182C8.0852 1.52189 8.61412 1.30207 9.16614 1.30035H36.3532L42.916 7.75221Z" fill="#F2F2F2"/>
<path d="M36.4586 6.08746C36.4557 6.30689 36.4968 6.52467 36.5795 6.72797C36.6623 6.93126 36.7849 7.11594 36.9402 7.27112C37.0956 7.42629 37.2805 7.5488 37.484 7.63143C37.6875 7.71406 37.9055 7.75513 38.1251 7.75221H42.9172L36.4586 1.30035V6.08746Z" fill="#CDD6E0"/>
<path d="M31.1454 22.2166H32.8119C32.2961 23.3399 31.4164 24.2569 30.3149 24.8194C28.8722 25.5752 27.2543 25.9342 25.627 25.8595C24.0473 25.9034 22.4788 25.5827 21.0433 24.9225C19.7973 24.3689 18.771 23.417 18.1262 22.2166C17.4993 21.0306 17.177 19.7076 17.1882 18.3665C17.1614 16.8785 17.52 15.4088 18.2293 14.1C18.8637 12.8412 19.8864 11.8195 21.1465 11.1858C22.4781 10.5469 23.9403 10.2261 25.4175 10.2488C26.6808 10.2412 27.9287 10.5263 29.0631 11.0817C30.0942 11.5578 30.9372 12.3634 31.4592 13.3712C32.0021 14.36 32.2887 15.4688 32.2929 16.5966C32.2936 17.9475 31.8551 19.2621 31.0434 20.3425C30.6001 21.0068 29.9941 21.5467 29.2831 21.911C28.572 22.2753 27.7794 22.4518 26.9808 22.4237C26.6232 22.4262 26.2688 22.3553 25.9397 22.2155C25.8239 22.1291 25.7271 22.0198 25.6554 21.8944C25.5837 21.769 25.5385 21.6302 25.5228 21.4867C25.2415 21.7838 24.9022 22.0202 24.526 22.1813C24.1498 22.3425 23.7445 22.425 23.3352 22.4237C22.923 22.4456 22.5113 22.3725 22.132 22.21C21.7527 22.0475 21.4158 21.8 21.1476 21.4867C20.8299 21.1563 20.583 20.7647 20.4217 20.3359C20.2604 19.907 20.1883 19.4499 20.2096 18.9923C20.1993 17.7362 20.5615 16.5052 21.2507 15.4545C21.5966 14.881 22.0856 14.407 22.6698 14.0787C23.254 13.7504 23.9134 13.5791 24.5837 13.5816C25.015 13.5743 25.4413 13.6753 25.8234 13.8752C26.2056 14.0751 26.5315 14.3675 26.7713 14.7257L26.9797 13.7887H29.163L27.9134 19.6159C27.8446 19.8528 27.8081 20.098 27.8048 20.3447C27.7984 20.4015 27.8048 20.4591 27.8236 20.5132C27.8424 20.5672 27.8731 20.6164 27.9134 20.657C28.022 20.7655 28.022 20.7655 28.1218 20.7655C28.507 20.6816 28.8649 20.5026 29.163 20.2449C29.7466 19.8119 30.2121 19.2395 30.5168 18.5801C30.8367 17.8944 31.014 17.151 31.0379 16.3948C31.0511 15.7674 30.9275 15.1447 30.6757 14.5698C30.424 13.9948 30.05 13.4815 29.5799 13.0653C29.0282 12.5791 28.3842 12.2088 27.6863 11.9764C26.9883 11.7441 26.2507 11.6545 25.5173 11.7129C24.205 11.6758 22.9077 11.9999 21.7675 12.65C20.7752 13.2389 19.9782 14.1064 19.4756 15.1444C18.9654 16.2156 18.7154 17.392 18.7461 18.578C18.7503 19.6728 19.0376 20.7479 19.5799 21.6993C20.1401 22.627 20.9784 23.3552 21.9759 23.7805C23.1048 24.2158 24.3075 24.428 25.5173 24.4052C26.6489 24.4094 27.774 24.2337 28.8503 23.8846C29.7339 23.5129 30.5194 22.942 31.1454 22.2166ZM22.2908 18.8871C22.2386 19.4403 22.3865 19.994 22.7077 20.4477C22.8356 20.6018 22.9942 20.7277 23.1735 20.8173C23.3527 20.9069 23.5486 20.9583 23.7488 20.9683C24.0387 20.9613 24.3235 20.8902 24.5826 20.7601C24.8156 20.6183 25.0264 20.4429 25.2079 20.2395C25.5538 19.8124 25.8027 19.3155 25.9375 18.783C26.1335 18.2133 26.239 17.6164 26.2502 17.0141C26.288 16.4946 26.1403 15.9785 25.8333 15.5576C25.7053 15.4035 25.5467 15.2776 25.3674 15.188C25.1882 15.0984 24.9923 15.047 24.7921 15.037C24.3262 15.0534 23.8821 15.2384 23.5425 15.5576C23.068 15.9618 22.7386 16.5098 22.6045 17.1182C22.4082 17.6879 22.3024 18.2847 22.2908 18.8871Z" fill="#FF7058"/>
</g>
<defs>
<linearGradient id="paint0_linear_114:55" x1="25" y1="0.00012207" x2="25" y2="34.8598" gradientUnits="userSpaceOnUse">
<stop stop-color="#615CFD"/>
<stop offset="1" stop-color="#D465EF"/>
</linearGradient>
<clipPath id="clip0_114:55">
<rect width="50" height="50" fill="white"/>
</clipPath>
</defs>
</svg>
