<svg width="50" height="50" viewBox="0 0 50 50" fill="none" xmlns="http://www.w3.org/2000/svg">
<g clip-path="url(#clip0_114:43)">
<path d="M37.5898 34.257L34.2583 37.5876L30.8228 34.1529L34.1542 30.8223L37.5898 34.257Z" fill="#334A5E"/>
<path d="M48.5171 48.5175C47.5631 49.4673 46.2716 50.0006 44.9252 50.0006C43.5789 50.0006 42.2874 49.4673 41.3334 48.5175L31.5474 38.7339L38.731 31.5522L48.5171 41.3357C49.4671 42.2894 50.0006 43.5806 50.0006 44.9266C50.0006 46.2726 49.4671 47.5638 48.5171 48.5175Z" fill="#FFD15C"/>
<path d="M33.6282 5.73818C29.9362 2.06356 24.9387 0.000549316 19.729 0.000549316C14.5194 0.000549316 9.52185 2.06356 5.8299 5.73818C3.99217 7.54209 2.53046 9.6924 1.52934 12.0647C0.528218 14.437 0.00755224 16.9842 -0.00253608 19.559C-0.0126244 22.1338 0.488065 24.685 1.47057 27.0651C2.45307 29.4452 3.89788 31.6069 5.72142 33.4251C9.39389 37.1248 14.386 39.2145 19.5996 39.2344C24.8132 39.2543 29.8212 37.2029 33.5219 33.5314C37.2225 29.8599 39.3127 24.869 39.3327 19.6568C39.3526 14.4446 37.3006 9.43789 33.6282 5.73818Z" fill="url(#paint0_linear_114:43)"/>
<path d="M30.5058 30.5099C27.6007 33.3702 23.6812 34.9645 19.6038 34.9441C15.5265 34.9238 11.6231 33.2906 8.74667 30.4015C7.31929 28.9799 6.18869 27.2889 5.42056 25.4267C4.65243 23.5646 4.26207 21.5684 4.27216 19.5541C4.28226 17.5399 4.6926 15.5477 5.47935 13.6933C6.26611 11.839 7.41359 10.1594 8.85515 8.75213C10.2789 7.30679 11.9751 6.15798 13.8457 5.37215C15.7163 4.58631 17.7242 4.17905 19.7533 4.17391C21.7823 4.16877 23.7923 4.56585 25.6669 5.3422C27.5414 6.11855 29.2435 7.25874 30.6745 8.69686C32.1055 10.135 33.2371 11.8424 34.0039 13.7206C34.7707 15.5987 35.1575 17.6101 35.1418 19.6386C35.1261 21.667 34.7083 23.6723 33.9125 25.5383C33.1168 27.4043 31.9589 29.0941 30.5058 30.5099Z" fill="#F2F2F2"/>
<path d="M27.4911 27.4906C25.9365 29.0447 23.9558 30.1031 21.7995 30.5318C19.6432 30.9605 17.4082 30.7404 15.3771 29.8993C13.3459 29.0581 11.6099 27.6337 10.3885 25.8062C9.16706 23.9786 8.51514 21.8301 8.51514 19.6321C8.51514 17.4342 9.16706 15.2856 10.3885 13.4581C11.6099 11.6305 13.3459 10.2061 15.3771 9.36498C17.4082 8.52382 19.6432 8.3037 21.7995 8.73243C23.9558 9.16117 25.9365 10.2195 27.4911 11.7736C28.5296 12.8022 29.3538 14.0262 29.9164 15.375C30.4789 16.7238 30.7685 18.1707 30.7685 19.6321C30.7685 21.0935 30.4789 22.5404 29.9164 23.8892C29.3538 25.2381 28.5296 26.4621 27.4911 27.4906Z" fill="#84DBFF"/>
<path d="M25.0917 25.0971C24.0106 26.178 22.6332 26.9142 21.1336 27.2125C19.6341 27.5107 18.0797 27.3577 16.6671 26.7728C15.2545 26.1879 14.0471 25.1974 13.1976 23.9264C12.3482 22.6555 11.8948 21.1612 11.8948 19.6327C11.8948 18.1041 12.3482 16.6099 13.1976 15.3389C14.0471 14.068 15.2545 13.0774 16.6671 12.4925C18.0797 11.9076 19.6341 11.7546 21.1336 12.0529C22.6332 12.3512 24.0106 13.0873 25.0917 14.1683C25.8095 14.8858 26.379 15.7377 26.7675 16.6753C27.156 17.6129 27.3559 18.6178 27.3559 19.6327C27.3559 20.6475 27.156 21.6524 26.7675 22.59C26.379 23.5276 25.8095 24.3795 25.0917 25.0971Z" fill="#54C0EB"/>
<path d="M13.4592 17.5932C14.3795 17.5932 15.1255 16.8474 15.1255 15.9274C15.1255 15.0074 14.3795 14.2615 13.4592 14.2615C12.539 14.2615 11.793 15.0074 11.793 15.9274C11.793 16.8474 12.539 17.5932 13.4592 17.5932Z" fill="white"/>
<path d="M15.9359 18.3611C16.396 18.3611 16.7691 17.9881 16.7691 17.5281C16.7691 17.0681 16.396 16.6952 15.9359 16.6952C15.4758 16.6952 15.1028 17.0681 15.1028 17.5281C15.1028 17.9881 15.4758 18.3611 15.9359 18.3611Z" fill="white"/>
<path d="M38.7299 31.5511L31.4421 38.6287L34.4612 41.6469L41.6448 34.4652L38.7299 31.5511Z" fill="#F8B64C"/>
</g>
<defs>
<linearGradient id="paint0_linear_114:43" x1="19.6651" y1="0.000549316" x2="19.6651" y2="39.2345" gradientUnits="userSpaceOnUse">
<stop stop-color="#615CFD"/>
<stop offset="1" stop-color="#D465EF"/>
</linearGradient>
<clipPath id="clip0_114:43">
<rect width="50" height="50" fill="white"/>
</clipPath>
</defs>
</svg>
