<svg width="50" height="50" viewBox="0 0 50 50" fill="none" xmlns="http://www.w3.org/2000/svg">
<g clip-path="url(#clip0_114:26)">
<path d="M50 1.66369C50.0029 1.44487 49.962 1.22767 49.8795 1.02487C49.7971 0.822071 49.6749 0.637756 49.5201 0.482759C49.3653 0.327763 49.181 0.205213 48.9781 0.122313C48.7751 0.0394121 48.5576 -0.00216641 48.3383 2.09978e-05H2.08338C1.53136 0.00173711 1.00244 0.221329 0.612107 0.610854C0.22177 1.00038 0.00171969 1.52819 0 2.07906V34.0954H50V1.66369Z" fill="#40596B"/>
<path d="M0 34.0954V38.0452C0.00171969 38.5961 0.22177 39.1239 0.612107 39.5135C1.00244 39.903 1.53136 40.1226 2.08338 40.1243H47.9166C48.4686 40.1226 48.9976 39.903 49.3879 39.5135C49.7782 39.1239 49.9983 38.5961 50 38.0452V34.0954H0Z" fill="#CDD6E0"/>
<path d="M45.5202 38.2535C46.1529 38.2535 46.6657 37.7417 46.6657 37.1104C46.6657 36.4791 46.1529 35.9673 45.5202 35.9673C44.8876 35.9673 44.3748 36.4791 44.3748 37.1104C44.3748 37.7417 44.8876 38.2535 45.5202 38.2535Z" fill="#F2F2F2"/>
<path d="M40.9372 38.2535C41.5699 38.2535 42.0827 37.7417 42.0827 37.1104C42.0827 36.4791 41.5699 35.9673 40.9372 35.9673C40.3046 35.9673 39.7917 36.4791 39.7917 37.1104C39.7917 37.7417 40.3046 38.2535 40.9372 38.2535Z" fill="#F2F2F2"/>
<path d="M35.4175 46.2573H14.5837L16.8758 41.6838L17.5007 40.1243H32.4984L33.1233 41.6838L35.4175 46.2573Z" fill="#ACB3BA"/>
<path d="M37.1879 46.2573H12.8123C12.3149 46.2573 11.8379 46.4544 11.4863 46.8054C11.1346 47.1563 10.937 47.6323 10.937 48.1286C10.937 48.625 11.1346 49.1009 11.4863 49.4519C11.8379 49.8028 12.3149 50 12.8123 50H37.1868C37.6842 50 38.1611 49.8028 38.5128 49.4519C38.8645 49.1009 39.0621 48.625 39.0621 48.1286C39.0621 47.6323 38.8645 47.1563 38.5128 46.8054C38.1611 46.4544 37.6842 46.2573 37.1868 46.2573H37.1879Z" fill="#CDD6E0"/>
<path d="M33.1243 41.6838H16.8789L17.5038 40.1243H32.5015L33.1243 41.6838Z" fill="#9EACB7"/>
<path d="M46.6669 3.01498H3.33325V30.9774H46.6669V3.01498Z" fill="white"/>
<path d="M41.2501 7.17307H25.208V9.77159H41.2501V7.17307Z" fill="#CDD6E0"/>
<path d="M41.2501 11.5394H25.208V14.1379H41.2501V11.5394Z" fill="#CDD6E0"/>
<path d="M24.8961 20.0627H8.854V22.6612H24.8961V20.0627Z" fill="#CDD6E0"/>
<path d="M24.8961 24.3249H8.854V26.9234H24.8961V24.3249Z" fill="#CDD6E0"/>
<path d="M22.9162 6.133H8.64551V15.1769H22.9162V6.133Z" fill="url(#paint0_linear_114:26)"/>
<path d="M41.3546 19.0226H27.084V28.0665H41.3546V19.0226Z" fill="#00D363"/>
</g>
<defs>
<linearGradient id="paint0_linear_114:26" x1="15.7808" y1="6.133" x2="15.7808" y2="15.1769" gradientUnits="userSpaceOnUse">
<stop stop-color="#615CFD"/>
<stop offset="1" stop-color="#D465EF"/>
</linearGradient>
<clipPath id="clip0_114:26">
<rect width="50" height="50" fill="white"/>
</clipPath>
</defs>
</svg>
